<mxfile host="app.diagrams.net" modified="2023-03-15T01:44:01.087Z" agent="5.0 (Windows NT 10.0; Win64; x64) AppleWebKit/537.36 (KHTML, like Gecko) Chrome/111.0.0.0 Safari/537.36" etag="Rlk8Sm3wIitiFNIdOKLW" version="21.0.6" type="github">
  <diagram name="第 1 页" id="Jt0CBjjWfTXspf5INsl5">
    <mxGraphModel dx="478" dy="276" grid="1" gridSize="10" guides="1" tooltips="1" connect="1" arrows="1" fold="1" page="1" pageScale="1" pageWidth="827" pageHeight="1169" math="0" shadow="0">
      <root>
        <mxCell id="0" />
        <mxCell id="1" parent="0" />
        <mxCell id="7DBT-qFl4_m5bUdalYO6-15" value="" style="rounded=0;whiteSpace=wrap;html=1;dashed=1;" vertex="1" parent="1">
          <mxGeometry x="234" y="100" width="136" height="170" as="geometry" />
        </mxCell>
        <mxCell id="7DBT-qFl4_m5bUdalYO6-4" value="&lt;font style=&quot;font-size: 18px;&quot;&gt;t&lt;/font&gt;" style="rounded=0;whiteSpace=wrap;html=1;" vertex="1" parent="1">
          <mxGeometry x="294" y="110" width="20" height="65" as="geometry" />
        </mxCell>
        <mxCell id="7DBT-qFl4_m5bUdalYO6-7" style="edgeStyle=orthogonalEdgeStyle;rounded=0;orthogonalLoop=1;jettySize=auto;html=1;exitX=1;exitY=0.5;exitDx=0;exitDy=0;entryX=1;entryY=0.5;entryDx=0;entryDy=0;" edge="1" parent="1" source="7DBT-qFl4_m5bUdalYO6-5" target="7DBT-qFl4_m5bUdalYO6-4">
          <mxGeometry relative="1" as="geometry" />
        </mxCell>
        <mxCell id="7DBT-qFl4_m5bUdalYO6-5" value="∑&lt;span style=&quot;font-size: 10px;&quot;&gt;&lt;sub&gt;1&lt;/sub&gt;&lt;/span&gt;" style="ellipse;whiteSpace=wrap;html=1;aspect=fixed;" vertex="1" parent="1">
          <mxGeometry x="274" y="197.5" width="60" height="60" as="geometry" />
        </mxCell>
        <mxCell id="7DBT-qFl4_m5bUdalYO6-9" style="edgeStyle=orthogonalEdgeStyle;rounded=0;orthogonalLoop=1;jettySize=auto;html=1;exitX=0;exitY=0.5;exitDx=0;exitDy=0;entryX=0;entryY=0.5;entryDx=0;entryDy=0;" edge="1" parent="1" source="7DBT-qFl4_m5bUdalYO6-4" target="7DBT-qFl4_m5bUdalYO6-5">
          <mxGeometry relative="1" as="geometry">
            <mxPoint x="344" y="238" as="sourcePoint" />
            <mxPoint x="324" y="153" as="targetPoint" />
            <Array as="points">
              <mxPoint x="250" y="143" />
              <mxPoint x="250" y="228" />
            </Array>
          </mxGeometry>
        </mxCell>
        <mxCell id="7DBT-qFl4_m5bUdalYO6-10" style="edgeStyle=orthogonalEdgeStyle;rounded=0;orthogonalLoop=1;jettySize=auto;html=1;exitX=1;exitY=0.5;exitDx=0;exitDy=0;entryX=0;entryY=0.5;entryDx=0;entryDy=0;" edge="1" parent="1" source="7DBT-qFl4_m5bUdalYO6-5">
          <mxGeometry relative="1" as="geometry">
            <mxPoint x="344" y="238" as="sourcePoint" />
            <mxPoint x="410" y="227.5" as="targetPoint" />
          </mxGeometry>
        </mxCell>
        <mxCell id="7DBT-qFl4_m5bUdalYO6-13" value="" style="edgeStyle=orthogonalEdgeStyle;rounded=0;orthogonalLoop=1;jettySize=auto;html=1;" edge="1" parent="1" target="7DBT-qFl4_m5bUdalYO6-5">
          <mxGeometry relative="1" as="geometry">
            <mxPoint x="220" y="227.5" as="sourcePoint" />
          </mxGeometry>
        </mxCell>
        <mxCell id="7DBT-qFl4_m5bUdalYO6-16" value="O&lt;sub&gt;1&lt;/sub&gt;" style="text;strokeColor=none;align=center;fillColor=none;html=1;verticalAlign=middle;whiteSpace=wrap;rounded=0;" vertex="1" parent="1">
          <mxGeometry x="360" y="200" width="60" height="30" as="geometry" />
        </mxCell>
        <mxCell id="7DBT-qFl4_m5bUdalYO6-17" value="&lt;span style=&quot;font-size: 10px;&quot;&gt;I&lt;sub&gt;1&lt;/sub&gt;&lt;/span&gt;" style="text;strokeColor=none;align=center;fillColor=none;html=1;verticalAlign=middle;whiteSpace=wrap;rounded=0;" vertex="1" parent="1">
          <mxGeometry x="190" y="200" width="60" height="30" as="geometry" />
        </mxCell>
      </root>
    </mxGraphModel>
  </diagram>
</mxfile>
